<?xml version="1.0" encoding="UTF-8"?>
<svg version="1.1" xmlns="http://www.w3.org/2000/svg" width="438" height="340">
<path d="M0 0 C144.54 0 289.08 0 438 0 C438 112.2 438 224.4 438 340 C293.46 340 148.92 340 0 340 C0 227.8 0 115.6 0 0 Z " fill="#E8E9E6" transform="translate(0,0)"/>
<path d="M0 0 C7.68800167 7.09101669 10.30416675 13.70166788 11 24 C5.06 24 -0.88 24 -7 24 C-7.37125 22.5975 -7.7425 21.195 -8.125 19.75 C-9.28238736 16.34749549 -9.9774752 15.02198849 -12.625 12.4375 C-16.92007817 10.60811486 -20.40495673 10.03706814 -25 11 C-28.21013047 12.8764117 -28.21013047 12.8764117 -30 16 C-30.83333333 19.5 -30.83333333 19.5 -30 23 C-25.89860602 28.41214876 -20.93504562 29.67761754 -14.6875 31.5 C-6.42630058 33.94041085 1.73452472 36.58797248 7.375 43.5 C7.83648437 44.0465625 8.29796875 44.593125 8.7734375 45.15625 C12.87947524 51.32838317 12.67793801 57.82950179 12 65 C10.26811054 71.67544736 5.61994284 76.25020706 0 80 C-8.88535886 84.82714207 -19.13346529 85.62748759 -28.93359375 83.3046875 C-38.60258321 79.80207031 -43.51663541 74.27672882 -47.84375 65.05859375 C-49.40288589 60.93425794 -49.85355179 57.39344643 -50 53 C-44.06 53 -38.12 53 -32 53 C-31.608125 54.381875 -31.21625 55.76375 -30.8125 57.1875 C-29.37728141 61.52732765 -27.58538062 64.05814923 -24 67 C-20.53303962 68.73348019 -16.79051063 68.47699379 -13 68 C-8.72596143 65.77561281 -8.72596143 65.77561281 -6 62 C-5.61144199 58.50297795 -5.7312538 56.51306092 -7.375 53.375 C-12.58379318 48.66228237 -19.55234799 47.13819186 -26.125 45 C-34.56533261 42.20819768 -42.86918316 39.13296998 -47.140625 30.765625 C-49.18438499 24.18843375 -49.33947707 14.89510544 -46.5 8.5 C-43.0834179 2.93133594 -37.40904588 -2.3566549 -31 -4 C-20.33549225 -6.2690442 -9.06390747 -6.71700286 0 0 Z " fill="#1D1F1D" transform="translate(235,108)"/>
<path d="M0 0 C20.46 0 40.92 0 62 0 C62 4.95 62 9.9 62 15 C54.74 15 47.48 15 40 15 C40 38.1 40 61.2 40 85 C34.06 85 28.12 85 22 85 C22 61.9 22 38.8 22 15 C14.74 15 7.48 15 0 15 C0 10.05 0 5.1 0 0 Z " fill="#20211F" transform="translate(116,105)"/>
<path d="M0 0 C0 4.62 0 9.24 0 14 C-7.39543307 17.7999413 -14.91074586 21.23339985 -22.55249023 24.50415039 C-24.46152916 25.32280443 -26.36649776 26.15048274 -28.27148438 26.97851562 C-30.08422852 27.75678711 -30.08422852 27.75678711 -31.93359375 28.55078125 C-33.02728271 29.02169189 -34.12097168 29.49260254 -35.24780273 29.9777832 C-38 31 -38 31 -41 31 C-41 31.66 -41 32.32 -41 33 C-40.34225586 33.09603516 -39.68451172 33.19207031 -39.00683594 33.29101562 C-35.08987815 34.2145984 -31.57460989 35.74436488 -27.890625 37.34375 C-27.12320984 37.67290405 -26.35579468 38.00205811 -25.56512451 38.34118652 C-23.95047127 39.03490158 -22.33682031 39.73095362 -20.72412109 40.42919922 C-18.24683772 41.50136864 -15.7662978 42.56570005 -13.28515625 43.62890625 C-11.7159492 44.30423079 -10.14693197 44.97999658 -8.578125 45.65625 C-7.83338928 45.97605835 -7.08865356 46.2958667 -6.3213501 46.62536621 C-1.11608196 48.88391804 -1.11608196 48.88391804 0 50 C0.07271741 52.35313555 0.08370868 54.70833668 0.0625 57.0625 C0.05347656 58.35285156 0.04445312 59.64320313 0.03515625 60.97265625 C0.02355469 61.97167969 0.01195312 62.97070312 0 64 C-4.01476251 63.44004429 -7.44340539 62.57655399 -11.16333008 60.97460938 C-12.14066605 60.55747681 -13.11800201 60.14034424 -14.12495422 59.71057129 C-15.16266464 59.25952026 -16.20037506 58.80846924 -17.26953125 58.34375 C-18.34627609 57.88141968 -19.42302094 57.41908936 -20.53239441 56.94274902 C-22.80052556 55.96738751 -25.06728973 54.98884181 -27.33276367 54.00732422 C-30.81454301 52.49911502 -34.30040797 51.00069648 -37.78710938 49.50390625 C-39.98982751 48.55525426 -42.19230988 47.60605462 -44.39453125 46.65625 C-45.44236282 46.20519897 -46.4901944 45.75414795 -47.56977844 45.28942871 C-48.53135361 44.87229614 -49.49292877 44.45516357 -50.48364258 44.02539062 C-51.33380447 43.6575647 -52.18396637 43.28973877 -53.05989075 42.9107666 C-55 42 -55 42 -56 41 C-56.08631874 39.65732587 -56.10706473 38.31025678 -56.09765625 36.96484375 C-56.09443359 36.15595703 -56.09121094 35.34707031 -56.08789062 34.51367188 C-56.07951172 33.66353516 -56.07113281 32.81339844 -56.0625 31.9375 C-56.05798828 31.08349609 -56.05347656 30.22949219 -56.04882812 29.34960938 C-56.03700373 27.23304337 -56.01906769 25.11651315 -56 23 C-45.38117456 17.93210643 -34.64286262 13.19882634 -23.79785156 8.63598633 C-21.20900607 7.54522803 -18.62403501 6.44560359 -16.0390625 5.34570312 C-14.38564283 4.64790137 -12.73200528 3.9506156 -11.078125 3.25390625 C-10.30946106 2.92588516 -9.54079712 2.59786407 -8.74884033 2.25990295 C-3.34347993 0 -3.34347993 0 0 0 Z " fill="#758B36" transform="translate(106,123)"/>
<path d="M0 0 C3.59006445 0.61342999 6.69239686 1.58505217 10.03393555 3.02539062 C11.00811935 3.44252319 11.98230316 3.85965576 12.98600769 4.28942871 C14.02574234 4.74047974 15.06547699 5.19153076 16.13671875 5.65625 C17.21250687 6.11858032 18.28829498 6.58091064 19.39668274 7.05725098 C22.82891951 8.53365331 26.25819208 10.01680931 29.6875 11.5 C32.00827865 12.49912749 34.32924013 13.49783042 36.65039062 14.49609375 C40.88609746 16.31975304 45.1213742 18.14438285 49.35424805 19.97460938 C50.20520554 20.3424353 51.05616302 20.71026123 51.9329071 21.0892334 C53.30361662 21.69317164 54.66027288 22.33013644 56 23 C56 29.27 56 35.54 56 42 C53.75832031 42.81726563 51.51664062 43.63453125 49.20703125 44.4765625 C38.67197381 48.3860023 28.43027489 52.95417322 18.15551758 57.49365234 C15.71372592 58.5706421 13.26913934 59.64107437 10.82421875 60.7109375 C10.08056564 61.04209564 9.33691254 61.37325378 8.57072449 61.71444702 C5.55292077 63.03286534 3.33054938 64 0 64 C0 59.38 0 54.76 0 50 C8.39955885 45.70788274 16.87105698 41.78664972 25.5625 38.125 C26.72330078 37.62742188 27.88410156 37.12984375 29.08007812 36.6171875 C30.18931641 36.14796875 31.29855469 35.67875 32.44140625 35.1953125 C33.93716187 34.56133545 33.93716187 34.56133545 35.46313477 33.91455078 C38 33 38 33 41 33 C41 32.34 41 31.68 41 31 C40.34225586 30.90396484 39.68451172 30.80792969 39.00683594 30.70898438 C35.08987815 29.7854016 31.57460989 28.25563512 27.890625 26.65625 C27.12320984 26.32709595 26.35579468 25.99794189 25.56512451 25.65881348 C23.95047127 24.96509842 22.33682031 24.26904638 20.72412109 23.57080078 C18.24683772 22.49863136 15.7662978 21.43429995 13.28515625 20.37109375 C11.7159492 19.69576921 10.14693197 19.02000342 8.578125 18.34375 C7.83338928 18.02394165 7.08865356 17.7041333 6.3213501 17.37463379 C1.11608196 15.11608196 1.11608196 15.11608196 0 14 C-0.07271741 11.64686445 -0.08370868 9.29166332 -0.0625 6.9375 C-0.05347656 5.64714844 -0.04445313 4.35679688 -0.03515625 3.02734375 C-0.02355469 2.02832031 -0.01195312 1.02929688 0 0 Z " fill="#758B35" transform="translate(326,123)"/>
<path d="M0 0 C4.95 0 9.9 0 15 0 C13.75054761 6.04081773 12.19443746 11.75803189 10.12109375 17.5625 C9.83683029 18.37207657 9.55256683 19.18165314 9.25968933 20.01576233 C8.32360167 22.67883517 7.38052187 25.33937565 6.4375 28 C5.43661817 30.841697 4.43755635 33.68402999 3.4385376 36.52638245 C2.73580769 38.5253214 2.03246783 40.52404602 1.32855225 42.52256775 C-1.38361977 50.22710388 -4.06707895 57.94132747 -6.73828125 65.66015625 C-7.12683792 66.7827182 -7.51539459 67.90528015 -7.91572571 69.06185913 C-9.4494471 73.49413513 -10.98254314 77.92662603 -12.51419067 82.35961914 C-13.57857197 85.43938194 -14.64460637 88.51856812 -15.7109375 91.59765625 C-16.03004593 92.52272476 -16.34915436 93.44779327 -16.67793274 94.40089417 C-16.97032333 95.24449997 -17.26271393 96.08810577 -17.56396484 96.95727539 C-17.81850433 97.6936171 -18.07304382 98.4299588 -18.33529663 99.18861389 C-19 101 -19 101 -20 103 C-24.95 103 -29.9 103 -35 103 C-33.49776096 95.37496051 -31.15070842 88.20037226 -28.59765625 80.8671875 C-28.15875392 79.59546993 -27.72026117 78.32361093 -27.28215027 77.05162048 C-26.12034584 73.68275657 -24.95233007 70.31607936 -23.78279114 66.94989395 C-22.82072321 64.17852995 -21.862211 61.40594183 -20.90368462 58.63335133 C-2.04653083 4.09306167 -2.04653083 4.09306167 0 0 Z " fill="#748A34" transform="translate(295,100)"/>
</svg>
